<svg id="レイヤー_1" data-name="レイヤー 1" xmlns="http://www.w3.org/2000/svg" xmlns:xlink="http://www.w3.org/1999/xlink" viewBox="0 0 96.28 23.98"><defs><style>.cls-1{mask:url(#mask);}.cls-2{mix-blend-mode:multiply;fill:url(#linear-gradient);}.cls-3{fill:#21302c;}.cls-11,.cls-20,.cls-4{fill:#fff;}.cls-5{fill:#f6ccd8;}.cls-6{fill:url(#linear-gradient-2);}.cls-7{fill:#f69be6;opacity:0.5;}.cls-8{mask:url(#mask-2);}.cls-9{fill:url(#linear-gradient-3);}.cls-10{opacity:0.7;}.cls-11,.cls-12{opacity:0.9;}.cls-13{fill:url(#linear-gradient-4);}.cls-14{fill:url(#linear-gradient-5);}.cls-15{fill:url(#linear-gradient-6);}.cls-16{fill:#b7b7b7;}.cls-17{fill:#c48500;}.cls-18{fill:#d69d10;}.cls-19{fill:#f6c247;opacity:0.8;}.cls-20{opacity:0.6;}.cls-21{fill:url(#linear-gradient-7);}.cls-22{filter:url(#luminosity-noclip-2);}.cls-23{filter:url(#luminosity-noclip);}</style><filter id="luminosity-noclip" x="4.53" y="-8204" width="15.39" height="32766" filterUnits="userSpaceOnUse" color-interpolation-filters="sRGB"><feFlood flood-color="#fff" result="bg"/><feBlend in="SourceGraphic" in2="bg"/></filter><mask id="mask" x="4.53" y="-8204" width="15.39" height="32766" maskUnits="userSpaceOnUse"><g class="cls-23"/></mask><linearGradient id="linear-gradient" x1="11.31" y1="10.72" x2="12.61" y2="20.74" gradientUnits="userSpaceOnUse"><stop offset="0.01" stop-color="#666"/><stop offset="0.35" stop-color="#fff"/><stop offset="1" stop-color="#fff"/></linearGradient><linearGradient id="linear-gradient-2" x1="11.21" y1="10.52" x2="11.21" y2="23.56" gradientUnits="userSpaceOnUse"><stop offset="0" stop-color="#c829da"/><stop offset="0.14" stop-color="#cd3bd5"/><stop offset="0.41" stop-color="#db69c7"/><stop offset="0.79" stop-color="#f1b2b2"/><stop offset="1" stop-color="#f6c4e6"/></linearGradient><filter id="luminosity-noclip-2" x="4.53" y="8.37" width="15.39" height="14.95" filterUnits="userSpaceOnUse" color-interpolation-filters="sRGB"><feFlood flood-color="#fff" result="bg"/><feBlend in="SourceGraphic" in2="bg"/></filter><mask id="mask-2" x="3.28" y="7.83" width="15.39" height="14.95" maskUnits="userSpaceOnUse"><g class="cls-22"><g transform="translate(-1.24 -0.54)"><g class="cls-1"><path class="cls-2" d="M15,8.37a13.1,13.1,0,0,1,1.47,6.25c0,3.84-2.67,7.84-6.92,7.84a10,10,0,0,1-5-1.81A9.5,9.5,0,0,0,11,23.32c5,0,8.94-3.27,8.94-8C19.92,12.11,17.93,9.75,15,8.37Z"/></g></g></g></mask><linearGradient id="linear-gradient-3" x1="11.31" y1="10.72" x2="12.61" y2="20.74" gradientUnits="userSpaceOnUse"><stop offset="0.01" stop-color="#f6e0c9"/><stop offset="0.35" stop-color="#ff9cda"/><stop offset="0.5" stop-color="#fea3da"/><stop offset="0.73" stop-color="#fbb8da"/><stop offset="1" stop-color="#f6d9db"/></linearGradient><linearGradient id="linear-gradient-4" x1="7.1" y1="6.09" x2="15.23" y2="6.09" gradientUnits="userSpaceOnUse"><stop offset="0" stop-color="#f5f5e5"/><stop offset="0.11" stop-color="#e4e4dc"/><stop offset="0.24" stop-color="#d8d8d6"/><stop offset="0.37" stop-color="#d4d4d4"/><stop offset="0.99" stop-color="#e3e3e6"/><stop offset="1" stop-color="#e3e3e6"/></linearGradient><linearGradient id="linear-gradient-5" x1="7.23" y1="6.1" x2="14.25" y2="6.1" gradientUnits="userSpaceOnUse"><stop offset="0" stop-color="#fff"/><stop offset="0.24" stop-color="#f3f3f4"/><stop offset="0.62" stop-color="#e7e7ea"/><stop offset="1" stop-color="#e3e3e6"/></linearGradient><linearGradient id="linear-gradient-6" x1="5.85" y1="4.16" x2="13.99" y2="4.16" gradientUnits="userSpaceOnUse"><stop offset="0" stop-color="#f5f5e5"/><stop offset="0.26" stop-color="#f7f7ed"/><stop offset="0.51" stop-color="#f9f9fa"/><stop offset="1" stop-color="#f5f5e5"/></linearGradient><linearGradient id="linear-gradient-7" x1="11.16" y1="5.21" x2="11.16" y2="2.32" gradientUnits="userSpaceOnUse"><stop offset="0" stop-color="#d69d10"/><stop offset="0.38" stop-color="#e0a922"/><stop offset="1" stop-color="#f6c247"/></linearGradient></defs><path class="cls-3" d="M15.69,7.69c-.07,0-.2-.07-.43-.61a.76.76,0,0,0,.54-.73V4.53c0-.31-.45-.62-1.2-.87a4.59,4.59,0,0,0,.46-2h0c0-.53-1.74-1.08-3.89-1.08S7.3,1.09,7.3,1.62h0a5,5,0,0,0,.4,2c-.73.24-1.17.54-1.17.85V6.28A.81.81,0,0,0,7,7.06c-.22.56-.34.61-.4.64-3.36,1.49-5.4,4.13-5.4,7.83,0,5.12,4.46,9,10,9s10-3.87,10-9C21.17,11.82,19.06,9.18,15.69,7.69Z" transform="translate(-1.24 -0.54)"/><path class="cls-4" d="M15.37,8a3.32,3.32,0,0,1-.79-1.33A13.62,13.62,0,0,1,11.22,7a14.68,14.68,0,0,1-3.5-.38A3.46,3.46,0,0,1,7,8c-3.2,1.43-5.27,3.94-5.27,7.46C1.71,20.33,6,24,11.21,24s9.49-3.69,9.49-8.58C20.7,11.91,18.58,9.4,15.37,8Z" transform="translate(-1.24 -0.54)"/><path class="cls-5" d="M15.1,8.23a4,4,0,0,1-.81-1.47,16.33,16.33,0,0,1-3,.26,16,16,0,0,1-3.2-.29A4.62,4.62,0,0,1,7.3,8.24C4.24,9.6,2.13,12,2.13,15.37c0,4.68,4.06,8.19,9.08,8.19s9.08-3.51,9.08-8.19C20.29,12,18.16,9.59,15.1,8.23Z" transform="translate(-1.24 -0.54)"/><path class="cls-6" d="M19,11.28a45.25,45.25,0,0,0-7.81-.76,44.87,44.87,0,0,0-7.79.76,7,7,0,0,0-1.28,4.09c0,4.68,4.06,8.19,9.08,8.19s9.08-3.51,9.08-8.19A7,7,0,0,0,19,11.28Z" transform="translate(-1.24 -0.54)"/><path class="cls-7" d="M18.9,11.79c0,.48-3.39.81-7.63.81s-7.74-.33-7.74-.81,3.31-1,7.55-1S18.9,11.32,18.9,11.79Z" transform="translate(-1.24 -0.54)"/><g class="cls-8"><path class="cls-9" d="M15,8.37a13.1,13.1,0,0,1,1.47,6.25c0,3.84-2.67,7.84-6.92,7.84a10,10,0,0,1-5-1.81A9.5,9.5,0,0,0,11,23.32c5,0,8.94-3.27,8.94-8C19.92,12.11,17.93,9.75,15,8.37Z" transform="translate(-1.24 -0.54)"/></g><g class="cls-10"><path class="cls-11" d="M9,9.25c-.37-.66-1.62-.68-3.88.94-1.81,1.3-2.73,4.45-1.8,4.91,1.58.78,1.08-1.59,2.91-2.86S9.65,10.36,9,9.25Z" transform="translate(-1.24 -0.54)"/><path class="cls-11" d="M3.47,15.42a1,1,0,0,0-.8,1.08,1,1,0,0,0,1,.94,1,1,0,0,0-.16-2Z" transform="translate(-1.24 -0.54)"/></g><path class="cls-4" d="M15.41,4.7c0-.62-1.82-1.21-4.24-1.21s-4.25.56-4.25,1.18V6.32c0,.62,1.85,1.25,4.24,1.25s4.2-.6,4.24-1.22v0h0Z" transform="translate(-1.24 -0.54)"/><g class="cls-12"><path class="cls-13" d="M15.23,4.9c-.05.56-1.85,1-4.06,1s-4-.4-4.07-1V6.27h0c0,.57,1.84,1,4.07,1s4-.46,4.06-1h0Z" transform="translate(-1.24 -0.54)"/></g><ellipse class="cls-4" cx="9.92" cy="4.28" rx="4.07" ry="1.05"/><path class="cls-14" d="M13.88,6.35c.49-.23.51-.58,0-.48A20.71,20.71,0,0,1,11.05,6c-2.14,0-3.23-.25-3.82-.74v1s.35.51,1.74.62A37.39,37.39,0,0,0,13.88,6.35Z" transform="translate(-1.24 -0.54)"/><ellipse class="cls-15" cx="9.92" cy="4.16" rx="4.07" ry="1.05"/><ellipse class="cls-16" cx="9.92" cy="4.3" rx="2.55" ry="0.52"/><path class="cls-17" d="M14.69,1.78h-7A7.19,7.19,0,0,0,9.08,5.16a9.47,9.47,0,0,0,4.12,0A7,7,0,0,0,14.69,1.78Z" transform="translate(-1.24 -0.54)"/><ellipse class="cls-18" cx="9.94" cy="1.23" rx="3.51" ry="0.87"/><path class="cls-19" d="M14.29,1.78c0,.42-1.43.71-3.14.71S8.06,2.2,8.06,1.78s1.4-.71,3.11-.71S14.29,1.35,14.29,1.78Z" transform="translate(-1.24 -0.54)"/><path class="cls-20" d="M10,1.25c-.93.07-1.61.26-1.61.52s1,.54,2.35.54h.15A2,2,0,0,1,10,1.25Z" transform="translate(-1.24 -0.54)"/><path class="cls-21" d="M13.49,2.59l-.15.88L13,2.69a9.28,9.28,0,0,1-1.17.13l-.25,1.42-.56-1.4a8.34,8.34,0,0,1-1.28-.1L9.58,3.85,9.09,2.63A10,10,0,0,1,8,2.32,9.31,9.31,0,0,0,9.23,5,8.1,8.1,0,0,0,13,5a8.61,8.61,0,0,0,1.36-2.64A5.86,5.86,0,0,1,13.49,2.59Z" transform="translate(-1.24 -0.54)"/><path d="M24.55,14.88c.39-1.09.87-2.15,1.18-3.26a33.19,33.19,0,0,1,1-3.93,1.43,1.43,0,0,1,1.57-1c.9,0,1.58.06,1.58,1.16,0,2.79-1.14,5.79-2.1,8.38a4.1,4.1,0,0,1-.42.87,1,1,0,0,1-.83.42c-.54,0-2.26-.84-2.26-1.44A3.42,3.42,0,0,1,24.55,14.88Zm10.26,2.41a1.71,1.71,0,0,1-.32-.63c-.64-2.2-1.24-4.44-1.84-6.66-.09-.31-.59-2-.59-2.23,0-.84.92-1.16,1.62-1.16,1.8,0,3.9,7.59,3.9,9.14,0,1.29-1,1.84-2.16,1.84A.76.76,0,0,1,34.81,17.29Z" transform="translate(-1.24 -0.54)"/><path d="M50.35,14.65c.61,0,1.84,0,1.84.89a1.38,1.38,0,0,1-.54,1.31c-.85.68-4.54.65-5.68.65H44.62c-1.1,0-3.75,0-4.53-.8a1.76,1.76,0,0,1-.39-1.27c0-.75,1.42-.79,1.95-.79Zm.45-7.39a1.88,1.88,0,0,1,.36,1.29c0,1.08-2.49,1-3.15,1-1,0-1.94,0-2.91,0s-1.94-.05-2.91-.05a4.19,4.19,0,0,1-.5,0,1.27,1.27,0,0,1-.46-.13.76.76,0,0,1-.5-.77,1.72,1.72,0,0,1,.41-1.29c.75-.72,5.28-.6,6.21-.6C48.1,6.61,50.33,6.67,50.8,7.26Z" transform="translate(-1.24 -0.54)"/><path d="M62.74,14.54a5.65,5.65,0,0,1-3.23,3.23,3.5,3.5,0,0,1-1.51.4c-.75,0-1.55-1.24-1.55-1.93s3-.89,3-2.36a.45.45,0,0,0-.09-.28c-.22-.22-3.9-.15-4.59-.33a1.11,1.11,0,0,1-.42-.21A1.55,1.55,0,0,1,54,11.89c0-1.32,2.73-1.09,3.58-1.09a7.19,7.19,0,0,0,2-.18,1.09,1.09,0,0,0,.15-.68c0-.57-.82-.58-1.24-.58s-.89.07-1.32.07c-.75,0-1.43,0-1.43-1a1.53,1.53,0,0,1,.6-1.39,5.34,5.34,0,0,1,1.41-.26c1.61-.18,3.23-.15,4.82-.45A11.29,11.29,0,0,1,64.87,6c.75,0,1.44,1.31,1.44,2s-1.28.79-1.68.85h0c-1,.23-1.56.08-1.56,1.35a.92.92,0,0,0,.24.54h0a3.77,3.77,0,0,0,1.47.2l.77,0c1.29,0,2.32-.17,2.32,1.45,0,1-.78,1.1-1.6,1.1-.3,0-.6,0-.9,0a2.67,2.67,0,0,0-2.64,1.22Z" transform="translate(-1.24 -0.54)"/><path d="M77.24,8.89c.69,0,2.94,0,3.18,1a3.18,3.18,0,0,1,.09.87c0,.57-.9.6-1.3.6l-1,0c-.72,0-.86.59-.86,1.19a9.21,9.21,0,0,0,.08,1.79.86.86,0,0,0,.31.64,1.11,1.11,0,0,0,.65.16l1.45,0c.51,0,1,0,1,.66A2.35,2.35,0,0,1,80.44,17a3.74,3.74,0,0,1-2.25.62l-2.64,0a12.71,12.71,0,0,1-3.66-.28,1,1,0,0,1-.69-.8,2.11,2.11,0,0,1-.17-.87c0-.58.86-.61,1.28-.61s.79,0,1.2,0c.94,0,1-.91,1-1.62,0-.36,0-.61,0-1,0-.82-.31-1.2-1.17-1.2l-.88,0c-.51,0-1.08-.06-1.08-.71a2.86,2.86,0,0,1,.19-1c.35-.61,2.31-.66,3-.66Z" transform="translate(-1.24 -0.54)"/><path d="M89.66,16.22l-.24-.45a5.55,5.55,0,0,0-2.16-.3l-1,0c-1.29,0-1.92-.12-1.92-1.87,0-1,1.2-1,1.94-1l.94,0a3.81,3.81,0,0,0,1.64-.24.71.71,0,0,0,.36-.66c0-.77-.41-1-1.37-1-.57,0-1.14.12-1.72.12-1,0-1.13-.36-1.13-1.47a1.69,1.69,0,0,1,.39-1,8.12,8.12,0,0,1,1.31-.2c.54,0,2.14-.09,2.14-.87,0-.27,0-.55,0-.82,0-.81,1.65-.83,2.19-.83,1.51,0,.76,1.25,1.27,1.94.21.28,1.35.27,1.71.27l1.35,0c1.26,0,1.55.64,1.55,2,0,.72-.89.81-1.44.81s-1,0-1.52,0-1.36.06-1.36.66.4,1.23,1.54,1.23a5.83,5.83,0,0,0,.71-.06,9,9,0,0,1,1.27-.09c1.19,0,1.44.11,1.44,1.35,0,2.41-3.79.75-4.41,2.06a1.21,1.21,0,0,0-.1.5c0,.38,0,.75,0,1,0,1.18-1.3,1.18-2.17,1.18C89.68,18.44,89.78,17.05,89.66,16.22Z" transform="translate(-1.24 -0.54)"/></svg>